<mxfile host="app.diagrams.net" modified="2023-10-04T19:17:20.805Z" agent="Mozilla/5.0 (Windows NT 10.0; Win64; x64) AppleWebKit/537.36 (KHTML, like Gecko) Chrome/117.0.0.0 Safari/537.36" etag="HR2FuZ021uAVAoi_bAHL" version="22.0.2" type="device">
  <diagram name="Page-1" id="9f46799a-70d6-7492-0946-bef42562c5a5">
    <mxGraphModel dx="1235" dy="675" grid="1" gridSize="10" guides="1" tooltips="1" connect="1" arrows="1" fold="1" page="1" pageScale="1" pageWidth="1100" pageHeight="850" background="none" math="0" shadow="0">
      <root>
        <mxCell id="0" />
        <mxCell id="1" parent="0" />
        <mxCell id="PScnIIXgdUdXINITf-cG-1" value="&lt;font style=&quot;font-size: 14px;&quot;&gt;&amp;lt;&amp;lt;Смартфон&amp;gt;&amp;gt;&lt;/font&gt;" style="verticalAlign=top;align=center;spacingTop=8;spacingLeft=2;spacingRight=12;shape=cube;size=10;direction=south;fontStyle=4;html=1;whiteSpace=wrap;" vertex="1" parent="1">
          <mxGeometry x="460" y="220" width="230" height="170" as="geometry" />
        </mxCell>
        <mxCell id="PScnIIXgdUdXINITf-cG-2" value="&amp;lt;&amp;lt;OC_Android&amp;gt;&amp;gt;" style="verticalAlign=top;align=center;spacingTop=8;spacingLeft=2;spacingRight=12;shape=cube;size=10;direction=south;fontStyle=4;html=1;whiteSpace=wrap;" vertex="1" parent="1">
          <mxGeometry x="500" y="260" width="140" height="110" as="geometry" />
        </mxCell>
        <mxCell id="PScnIIXgdUdXINITf-cG-3" value="&lt;font style=&quot;font-size: 14px;&quot;&gt;*.apk&lt;br&gt;(Android&lt;br&gt;studio)&lt;br&gt;&lt;/font&gt;" style="shape=module;align=left;spacingLeft=20;align=center;verticalAlign=top;whiteSpace=wrap;html=1;" vertex="1" parent="1">
          <mxGeometry x="510" y="300" width="100" height="60" as="geometry" />
        </mxCell>
        <mxCell id="PScnIIXgdUdXINITf-cG-9" value="" style="endArrow=none;html=1;rounded=0;" edge="1" parent="1">
          <mxGeometry width="50" height="50" relative="1" as="geometry">
            <mxPoint x="520" y="390" as="sourcePoint" />
            <mxPoint x="520" y="420" as="targetPoint" />
          </mxGeometry>
        </mxCell>
        <mxCell id="PScnIIXgdUdXINITf-cG-10" value="" style="ellipse;whiteSpace=wrap;html=1;aspect=fixed;" vertex="1" parent="1">
          <mxGeometry x="500" y="420" width="40" height="40" as="geometry" />
        </mxCell>
        <mxCell id="PScnIIXgdUdXINITf-cG-11" value="&lt;font style=&quot;font-size: 14px;&quot;&gt;Сенсарний&lt;br&gt;екран&amp;nbsp;&lt;/font&gt;" style="text;html=1;align=center;verticalAlign=middle;resizable=0;points=[];autosize=1;strokeColor=none;fillColor=none;" vertex="1" parent="1">
          <mxGeometry x="470" y="450" width="100" height="50" as="geometry" />
        </mxCell>
        <mxCell id="PScnIIXgdUdXINITf-cG-12" value="" style="endArrow=none;html=1;rounded=0;" edge="1" parent="1">
          <mxGeometry width="50" height="50" relative="1" as="geometry">
            <mxPoint x="630" y="390" as="sourcePoint" />
            <mxPoint x="630" y="420" as="targetPoint" />
          </mxGeometry>
        </mxCell>
        <mxCell id="PScnIIXgdUdXINITf-cG-13" value="" style="ellipse;whiteSpace=wrap;html=1;aspect=fixed;" vertex="1" parent="1">
          <mxGeometry x="610" y="420" width="40" height="40" as="geometry" />
        </mxCell>
        <mxCell id="PScnIIXgdUdXINITf-cG-14" value="&lt;span style=&quot;font-size: 14px;&quot;&gt;Мікрафон&lt;/span&gt;" style="text;html=1;align=center;verticalAlign=middle;resizable=0;points=[];autosize=1;strokeColor=none;fillColor=none;" vertex="1" parent="1">
          <mxGeometry x="585" y="460" width="90" height="30" as="geometry" />
        </mxCell>
        <mxCell id="PScnIIXgdUdXINITf-cG-16" value="" style="endArrow=none;dashed=1;html=1;dashPattern=1 3;strokeWidth=2;rounded=0;" edge="1" parent="1">
          <mxGeometry width="50" height="50" relative="1" as="geometry">
            <mxPoint x="750" y="520" as="sourcePoint" />
            <mxPoint x="750" y="130" as="targetPoint" />
          </mxGeometry>
        </mxCell>
        <mxCell id="PScnIIXgdUdXINITf-cG-17" value="" style="endArrow=none;html=1;rounded=0;entryX=0;entryY=0;entryDx=130;entryDy=230;entryPerimeter=0;" edge="1" parent="1" target="PScnIIXgdUdXINITf-cG-18">
          <mxGeometry width="50" height="50" relative="1" as="geometry">
            <mxPoint x="690" y="320" as="sourcePoint" />
            <mxPoint x="900" y="320" as="targetPoint" />
          </mxGeometry>
        </mxCell>
        <mxCell id="PScnIIXgdUdXINITf-cG-18" value="&lt;font style=&quot;font-size: 14px;&quot;&gt;&amp;lt;&amp;lt;сервер 2&amp;gt;&amp;gt;&lt;/font&gt;" style="verticalAlign=top;align=center;spacingTop=8;spacingLeft=2;spacingRight=12;shape=cube;size=10;direction=south;fontStyle=4;html=1;whiteSpace=wrap;" vertex="1" parent="1">
          <mxGeometry x="810" y="190" width="230" height="250" as="geometry" />
        </mxCell>
        <mxCell id="PScnIIXgdUdXINITf-cG-19" value="&lt;font style=&quot;font-size: 14px;&quot;&gt;&amp;lt;&amp;lt;OC Linux&amp;gt;&amp;gt;&lt;/font&gt;" style="verticalAlign=top;align=center;spacingTop=8;spacingLeft=2;spacingRight=12;shape=cube;size=10;direction=south;fontStyle=4;html=1;whiteSpace=wrap;" vertex="1" parent="1">
          <mxGeometry x="820" y="240" width="195" height="180" as="geometry" />
        </mxCell>
        <mxCell id="PScnIIXgdUdXINITf-cG-20" value="&lt;font style=&quot;font-size: 14px;&quot;&gt;&amp;lt;&amp;lt;Application Server&lt;br&gt;&amp;nbsp;Apache Tomcat&amp;gt;&amp;gt;&lt;/font&gt;" style="verticalAlign=top;align=center;spacingTop=8;spacingLeft=2;spacingRight=12;shape=cube;size=10;direction=south;fontStyle=4;html=1;whiteSpace=wrap;" vertex="1" parent="1">
          <mxGeometry x="838.13" y="280" width="158.75" height="120" as="geometry" />
        </mxCell>
        <mxCell id="PScnIIXgdUdXINITf-cG-21" value="&lt;font style=&quot;font-size: 14px;&quot;&gt;&lt;br&gt;*.jar&lt;/font&gt;" style="shape=module;align=left;spacingLeft=20;align=center;verticalAlign=top;whiteSpace=wrap;html=1;" vertex="1" parent="1">
          <mxGeometry x="860" y="340" width="100" height="50" as="geometry" />
        </mxCell>
        <mxCell id="PScnIIXgdUdXINITf-cG-22" value="" style="endArrow=none;html=1;rounded=0;entryX=0;entryY=0;entryDx=130;entryDy=230;entryPerimeter=0;" edge="1" parent="1">
          <mxGeometry width="50" height="50" relative="1" as="geometry">
            <mxPoint x="1040" y="320" as="sourcePoint" />
            <mxPoint x="1160" y="320" as="targetPoint" />
          </mxGeometry>
        </mxCell>
        <mxCell id="PScnIIXgdUdXINITf-cG-23" value="" style="endArrow=none;dashed=1;html=1;dashPattern=1 3;strokeWidth=2;rounded=0;" edge="1" parent="1">
          <mxGeometry width="50" height="50" relative="1" as="geometry">
            <mxPoint x="1099" y="520" as="sourcePoint" />
            <mxPoint x="1099" y="130" as="targetPoint" />
          </mxGeometry>
        </mxCell>
        <mxCell id="PScnIIXgdUdXINITf-cG-24" value="&lt;font style=&quot;font-size: 14px;&quot;&gt;&amp;lt;&amp;lt;сервер 4&amp;gt;&amp;gt;&lt;/font&gt;" style="verticalAlign=top;align=center;spacingTop=8;spacingLeft=2;spacingRight=12;shape=cube;size=10;direction=south;fontStyle=4;html=1;whiteSpace=wrap;" vertex="1" parent="1">
          <mxGeometry x="1160" y="190" width="230" height="250" as="geometry" />
        </mxCell>
        <mxCell id="PScnIIXgdUdXINITf-cG-25" value="&lt;font style=&quot;font-size: 14px;&quot;&gt;&amp;lt;&amp;lt;OC Linux&amp;gt;&amp;gt;&lt;/font&gt;" style="verticalAlign=top;align=center;spacingTop=8;spacingLeft=2;spacingRight=12;shape=cube;size=10;direction=south;fontStyle=4;html=1;whiteSpace=wrap;" vertex="1" parent="1">
          <mxGeometry x="1170" y="240" width="195" height="180" as="geometry" />
        </mxCell>
        <mxCell id="PScnIIXgdUdXINITf-cG-26" value="&lt;font style=&quot;font-size: 14px;&quot;&gt;&amp;lt;&amp;lt;Database Server&lt;br&gt;&amp;nbsp;PosgreSQL&amp;gt;&amp;gt;&lt;/font&gt;" style="verticalAlign=top;align=center;spacingTop=8;spacingLeft=2;spacingRight=12;shape=cube;size=10;direction=south;fontStyle=4;html=1;whiteSpace=wrap;" vertex="1" parent="1">
          <mxGeometry x="1188.13" y="280" width="158.75" height="120" as="geometry" />
        </mxCell>
        <mxCell id="PScnIIXgdUdXINITf-cG-28" value="Relation&lt;br&gt;Database" style="shape=cylinder3;whiteSpace=wrap;html=1;boundedLbl=1;backgroundOutline=1;size=15;" vertex="1" parent="1">
          <mxGeometry x="1232.5" y="330" width="77.5" height="60" as="geometry" />
        </mxCell>
      </root>
    </mxGraphModel>
  </diagram>
</mxfile>
